<svg width="66" height="66" viewBox="0 0 66 66" fill="none" xmlns="http://www.w3.org/2000/svg">
<circle cx="33" cy="33" r="33" fill="#0060D5"/>
<path d="M27.9009 19.0595C27.9009 20.3065 28.3505 21.3895 29.2347 22.2824C30.1205 23.177 31.2036 23.6314 32.4563 23.6314C33.7095 23.6314 34.7911 23.1758 35.6731 22.2786C36.5527 21.384 36.9996 20.3006 36.9996 19.0545C36.9996 17.8074 36.5499 16.7266 35.6645 15.839C34.7784 14.9506 33.6958 14.5 32.4442 14.5C31.1922 14.5 30.111 14.9518 29.2287 15.8428C28.3479 16.7322 27.9009 17.8133 27.9009 19.0595ZM26.1015 30.6657V51C26.1015 51.8284 26.7731 52.5 27.6015 52.5H29.8079C30.6363 52.5 31.3079 51.8284 31.3079 51V41.8827C31.3079 41.6066 31.5318 41.3827 31.8079 41.3827H33.1653C33.4415 41.3827 33.6653 41.6066 33.6653 41.8827V51C33.6653 51.8284 34.3369 52.5 35.1653 52.5H37.3895C38.218 52.5 38.8895 51.8284 38.8895 51V30.6605C38.8895 30.4022 39.0881 30.1821 39.3522 30.1566C41.0005 29.9975 42.6616 29.7872 44.3353 29.5259C45.9833 29.2685 47.5901 28.9508 49.1557 28.5726C49.9652 28.3771 50.4434 27.5581 50.2432 26.7618L49.6815 24.5274C49.4778 23.717 48.6568 23.2378 47.8563 23.4295C45.5883 23.9724 43.2185 24.3788 40.7465 24.6482C37.9149 24.9568 35.1491 25.1109 32.449 25.1109C29.7489 25.1109 27.0004 24.9568 24.2032 24.6483C21.762 24.379 19.4165 23.9729 17.1666 23.4302C16.3689 23.2379 15.5492 23.712 15.3412 24.5187L14.7644 26.7561C14.5588 27.5536 15.0357 28.3778 15.8477 28.5749C17.4019 28.9521 19.0001 29.269 20.6422 29.5258C22.3157 29.7876 23.9816 29.9997 25.6399 30.1621C25.9035 30.188 26.1015 30.4077 26.1015 30.6657Z" fill="#FF006F" stroke="white"/>
</svg>
