<svg xmlns="http://www.w3.org/2000/svg" height="40" viewBox="0 -960 960 960" width="40"><path d="M560-550.637v-53.13q33-14.337 67.5-21.937 34.5-7.6 72.5-7.6 26 0 51 4t49 10v50.667q-24-9-48.5-13.5t-51.5-4.5q-38 0-73 9.5t-67 26.5Zm0 220v-53.797q33-14.003 67.5-21.436 34.5-7.434 72.5-7.434 26 0 51 4t49 10v50.667q-24-9-48.5-13.5t-51.5-4.5q-38 0-73 9t-67 27Zm0-110v-53.13q33-14.337 67.5-21.937 34.5-7.6 72.5-7.6 26 0 51 4t49 10v50.667q-24-9-48.5-13.5t-51.5-4.5q-38 0-73 9.5t-67 26.5ZM250.464-285.869q51.573 0 100.402 12.051 48.83 12.051 95.598 35.283v-418.678q-43.101-27.395-93.663-42.229-50.561-14.833-102.221-14.833-37.45 0-74.102 8.667-36.652 8.666-72.319 22.752V-259.1q32.87-13.435 70.846-20.102 37.976-6.667 75.459-6.667Zm265.941 47.334q48.012-23.232 94.58-35.283 46.568-12.051 98.414-12.051 37.471 0 76.188 6 38.718 6 70.254 17.435v-420.373q-33.667-16.743-71.201-24.106-37.533-7.362-75.241-7.362-51.846 0-100.586 14.833-48.741 14.834-92.408 42.229v418.678ZM482.72-117.811q-50.342-38.236-109.179-60.871-58.836-22.636-123.077-22.636-37.98 0-74.411 10.524-36.431 10.524-71.414 25.316-28.642 14.58-56.785-1.525-28.144-16.105-28.144-49.881v-478.248q0-19.65 9.044-36.743 9.043-17.093 27.13-26.14 45.69-21.159 94.166-31.122 48.475-9.964 99.08-9.964 62.38 0 121.553 16.739 59.172 16.739 110.65 50.957Q533-765.058 590.755-782.079q57.754-17.022 120.141-17.022 50.456 0 98.787 10.58 48.331 10.579 93.766 30.506 18.087 9.047 27.464 26.14 9.377 17.093 9.377 37.166v484.796q0 31.743-28.561 46.473-28.561 14.731-57.034-2.038-34.317-15.459-70.813-25.65-36.496-10.19-74.542-10.19-62.16 0-119.356 23.252-57.197 23.251-107.264 60.255ZM275.594-470.637Z"/></svg>