<svg width="66" height="66" viewBox="0 0 66 66" fill="none" xmlns="http://www.w3.org/2000/svg">
<circle cx="33" cy="33" r="33" fill="#0060D5"/>
<path d="M41.7573 27.1334V27.6334H42.2573H45.3804H45.8804V27.1334V24.0103V23.5103H45.3804H42.2573H41.7573V24.0103V27.1334ZM41.7573 34.2421V34.7421H42.2573H45.3804H45.8804V34.2421V31.119V30.619H45.3804H42.2573H41.7573V31.119V34.2421ZM41.7573 41.2995V41.7995H42.2573H45.3804H45.8804V41.2995V38.1763V37.6763H45.3804H42.2573H41.7573V38.1763V41.2995ZM40.2017 48.4486V48.9486H40.7017H52.4686H52.9686V48.4486V17V16.5H52.4686H29.7579H29.2579V17V21.7102V21.9664L29.4659 22.116L33.1857 24.7923L33.9777 25.3622V24.3865V21.2041H48.2488V44.2445H40.7017H40.2017V44.7445V48.4486ZM13.5 48.4486V48.9486H14H24.0163H24.5163V48.4486V39.5887H27.734V48.4486V48.9486H28.234H38.2053H38.7053V48.4486V31.0338V30.7772L38.4968 30.6276L26.4316 21.9676L26.141 21.759L25.8497 21.9667L13.7096 30.6267L13.5 30.7763V31.0338V48.4486ZM21.116 35.6745H20.616V36.1745V44.2445H18.2277V33.2251L26.139 27.6079L33.9777 33.2142V44.2445H31.6365V36.1745V35.6745H31.1365H21.116Z" fill="#FF006F" stroke="white"/>
</svg>
