<svg width="54" height="54" viewBox="0 0 54 54" fill="none" xmlns="http://www.w3.org/2000/svg">
<circle cx="27" cy="27" r="27" fill="white"/>
<path d="M42 27.0913C42 18.7546 35.2863 12 27 12C18.7137 12 12 18.7546 12 27.0913C12 34.6235 17.4853 40.8669 24.6562 42V31.4538H20.8458V27.0913H24.6562V23.7663C24.6562 19.9844 26.8942 17.8953 30.3218 17.8953C31.9633 17.8953 33.6798 18.1899 33.6798 18.1899V21.9018H31.7879C29.925 21.9018 29.3437 23.0653 29.3437 24.2586V27.0913H33.5038L32.8385 31.4538H29.3437V42C36.5147 40.8669 42 34.6235 42 27.0913Z" fill="black"/>
</svg>
