<svg width="54" height="54" viewBox="0 0 54 54" fill="none" xmlns="http://www.w3.org/2000/svg">
<circle cx="27" cy="27" r="27" fill="white"/>
<path d="M27.0033 19.3084C22.7468 19.3084 19.3134 22.7425 19.3134 27C19.3134 31.2575 22.7468 34.6916 27.0033 34.6916C31.2599 34.6916 34.6933 31.2575 34.6933 27C34.6933 22.7425 31.2599 19.3084 27.0033 19.3084ZM27.0033 32.0006C24.2527 32.0006 22.0039 29.758 22.0039 27C22.0039 24.242 24.246 21.9994 27.0033 21.9994C29.7607 21.9994 32.0028 24.242 32.0028 27C32.0028 29.758 29.754 32.0006 27.0033 32.0006ZM36.8015 18.9938C36.8015 19.9912 35.9983 20.7878 35.0078 20.7878C34.0106 20.7878 33.2142 19.9845 33.2142 18.9938C33.2142 18.003 34.0173 17.1997 35.0078 17.1997C35.9983 17.1997 36.8015 18.003 36.8015 18.9938ZM41.8946 20.8146C41.7808 18.4114 41.232 16.2826 39.4718 14.5287C37.7184 12.7749 35.5901 12.2259 33.1874 12.1054C30.7111 11.9649 23.2889 11.9649 20.8126 12.1054C18.4166 12.2192 16.2883 12.7682 14.5282 14.522C12.768 16.2759 12.2259 18.4047 12.1054 20.8079C11.9649 23.2847 11.9649 30.7086 12.1054 33.1854C12.2192 35.5886 12.768 37.7174 14.5282 39.4713C16.2883 41.2251 18.4099 41.7741 20.8126 41.8946C23.2889 42.0351 30.7111 42.0351 33.1874 41.8946C35.5901 41.7808 37.7184 41.2318 39.4718 39.4713C41.2253 37.7174 41.7741 35.5886 41.8946 33.1854C42.0351 30.7086 42.0351 23.2914 41.8946 20.8146ZM38.6955 35.843C38.1735 37.1551 37.1629 38.1659 35.8444 38.6947C33.8701 39.478 29.1852 39.2972 27.0033 39.2972C24.8215 39.2972 20.1299 39.4713 18.1623 38.6947C16.8505 38.1726 15.8399 37.1618 15.3112 35.843C14.5282 33.8682 14.7089 29.1823 14.7089 27C14.7089 24.8177 14.5349 20.1251 15.3112 18.157C15.8332 16.8449 16.8438 15.8341 18.1623 15.3053C20.1366 14.522 24.8215 14.7028 27.0033 14.7028C29.1852 14.7028 33.8767 14.5287 35.8444 15.3053C37.1562 15.8274 38.1668 16.8382 38.6955 18.157C39.4785 20.1318 39.2978 24.8177 39.2978 27C39.2978 29.1823 39.4785 33.8749 38.6955 35.843Z" fill="black"/>
</svg>
