<svg width="66" height="66" viewBox="0 0 66 66" fill="none" xmlns="http://www.w3.org/2000/svg">
<circle cx="33" cy="33" r="33" fill="#0060D5"/>
<path d="M17.7054 17.9488L17.805 18.4388L17.7054 17.9488ZM17.7054 17.9488C16.2281 18.249 14.7937 18.7178 13.4029 19.3546L13.3961 19.3577M17.7054 17.9488C19.1782 17.6495 20.6825 17.5 22.2177 17.5C24.1147 17.5 25.9646 17.7517 27.766 18.2556L27.6315 18.7364L27.766 18.2556C29.3577 18.7008 30.859 19.351 32.2686 20.206C32.4491 20.3155 32.6757 20.3162 32.8556 20.2087C34.2617 19.3683 35.7411 18.7217 37.2928 18.2695C39.0547 17.7561 40.8855 17.5 42.7834 17.5C44.3164 17.5 45.8184 17.6589 47.2889 17.9772L13.3961 19.3577M13.3961 19.3577L13.3894 19.361M13.3961 19.3577L13.3894 19.361M13.3894 19.361C12.7642 19.6702 12.2823 20.1257 11.962 20.7243L13.3894 19.361ZM37.3984 45.3467L37.5848 45.8107C36.1483 46.388 34.7895 47.1131 33.5079 47.9861C32.972 48.3511 32.266 48.3455 31.7354 47.9767C30.4432 47.0789 29.0586 46.349 27.5809 45.7869C25.8919 45.1445 24.1251 44.8228 22.2771 44.8228C21.1958 44.8228 20.1373 44.9709 19.1004 45.267C18.043 45.569 17.0066 45.932 15.9909 46.3558C14.9952 46.8511 13.9813 46.8202 13.0072 46.269C12.0085 45.704 11.5 44.8018 11.5 43.6374V22.5782C11.5 21.9202 11.654 21.2997 11.9619 20.7243L37.3984 45.3467ZM37.3984 45.3467L37.5848 45.8107C39.2233 45.1521 40.9319 44.8228 42.7142 44.8228C43.7991 44.8228 44.8609 44.9664 45.901 45.2535C46.9523 45.5438 47.9721 45.9083 48.9606 46.3472L37.3984 45.3467ZM19.0958 22.6038L19.0958 22.6038C20.147 22.358 21.2089 22.2352 22.2823 22.2352C23.7681 22.2352 25.2388 22.446 26.6956 22.8686C27.9761 23.24 29.1712 23.7488 30.2823 24.3944C30.4173 24.4728 30.5064 24.625 30.5064 24.8006V33.466V41.0788C30.5064 41.4363 30.1128 41.7209 29.7276 41.5659C28.7881 41.1878 27.8346 40.8807 26.8673 40.6446C25.3777 40.2811 23.8473 40.0997 22.2771 40.0997C21.1347 40.0997 19.9859 40.2002 18.8309 40.4007C18.2071 40.5089 17.6045 40.647 17.0233 40.8152C16.6263 40.93 16.2611 40.6357 16.2611 40.2958V23.8018C16.2611 23.5927 16.3881 23.4149 16.5695 23.35C17.4028 23.0514 18.2449 22.8027 19.0958 22.6038ZM35.8111 27.4594V27.4854C35.8111 28.6319 37.0094 29.3045 37.9972 28.9221C38.4628 28.742 38.9386 28.5866 39.4247 28.4562C40.4196 28.1892 41.4596 28.0549 42.5463 28.0549C43.3205 28.0549 44.055 28.1187 44.7506 28.245C45.0035 28.291 45.2556 28.3452 45.5068 28.4079C46.4637 28.6463 47.5 27.9597 47.5 26.9032C47.5 26.2194 47.0335 25.6 46.3422 25.4515C45.8662 25.3492 45.384 25.2595 44.8958 25.1823C44.127 25.0607 43.3437 25 42.5463 25C41.3849 25 40.2728 25.1148 39.2109 25.3461C38.3731 25.5286 37.5501 25.7752 36.742 26.0857C36.1652 26.3073 35.8111 26.8642 35.8111 27.4594ZM39.2132 35.0258C38.2691 35.2269 37.3438 35.5075 36.4374 35.8672C36.0986 36.0016 35.8444 36.2784 35.729 36.6131C35.5341 37.1782 35.7883 37.7194 36.121 38.0535C36.4541 38.3881 36.9799 38.6355 37.5269 38.5177C37.7741 38.4644 38.0366 38.4129 38.2957 38.362C38.7025 38.2822 39.1009 38.204 39.4183 38.1233C40.4152 37.8699 41.4574 37.7424 42.5463 37.7424C43.3205 37.7424 44.055 37.8062 44.7506 37.9326C45.0035 37.9785 45.2556 38.0327 45.5068 38.0954C46.4637 38.3338 47.5 37.6472 47.5 36.5907C47.5 35.9069 47.0335 35.2875 46.3422 35.139C45.8662 35.0368 45.384 34.947 44.8958 34.8698C44.127 34.7482 43.3437 34.6875 42.5463 34.6875C41.3857 34.6875 40.2743 34.7998 39.2132 35.0258ZM35.8111 32.3032V32.3291C35.8111 33.4757 37.0094 34.1482 37.9972 33.7659C38.4628 33.5857 38.9386 33.4304 39.4247 33.2999C40.4196 33.0329 41.4596 32.8987 42.5463 32.8987C43.3205 32.8987 44.055 32.9625 44.7506 33.0888C45.0035 33.1347 45.2556 33.189 45.5068 33.2516C46.4637 33.4901 47.5 32.8035 47.5 31.747C47.5 31.0632 47.0335 30.4438 46.3422 30.2953C45.8662 30.193 45.384 30.1033 44.8958 30.026C44.127 29.9044 43.3437 29.8438 42.5463 29.8438C41.3849 29.8438 40.2728 29.9586 39.2109 30.1899C38.3731 30.3723 37.5501 30.6189 36.742 30.9294C36.1652 31.151 35.8111 31.7079 35.8111 32.3032ZM38.2098 40.646C37.2759 40.8849 36.3345 41.1964 35.3857 41.5797C35.0091 41.7318 34.6214 41.4539 34.6214 41.0971V24.8044C34.6214 24.6281 34.7114 24.4744 34.8488 24.3951C35.9702 23.7476 37.1474 23.2384 38.381 22.8672C39.7806 22.4461 41.2253 22.2352 42.7168 22.2352C43.804 22.2352 44.8891 22.3401 45.9726 22.5503C46.8446 22.7194 47.6787 22.9759 48.4756 23.3194C48.6293 23.3856 48.7389 23.5474 48.7389 23.7436V40.2108C48.7389 40.5442 48.39 40.8328 48.0028 40.7346C47.427 40.5886 46.8213 40.4671 46.1857 40.3697C45.0122 40.1899 43.8558 40.0997 42.7168 40.0997C41.1389 40.0997 39.636 40.2811 38.2098 40.646Z" fill="#FF006F" stroke="white"/>
</svg>
