<svg xmlns="http://www.w3.org/2000/svg" height="40" viewBox="0 -960 960 960" width="40"><path d="M696.508-614.566h74.955v-74.955h-74.955v74.955Zm0 170.609h74.955v-74.955h-74.955v74.955Zm0 169.377h74.955v-74.956h-74.955v74.956Zm-37.335 171.579v-88.898h193.131v-576.97H485.797v88.377l-89.275-64.231v-113.044h545.057v754.766H659.173Zm-640.84 0v-417.955l291.362-207.84 289.565 207.84v417.955H359.949v-224.637H258.724v224.637H18.334Zm89.464-88.898h81.319v-205.68h240.492v205.68h80.189v-282.898L309.695-617.913 107.797-474.562v282.663Zm551.376-366.564ZM429.608-191.899v-205.68H189.116v205.68-205.68h240.492v205.68Z"/></svg>