<svg xmlns="http://www.w3.org/2000/svg" height="40" viewBox="0 -960 960 960" width="40"><path d="M479.36-798.101q-35.447 0-60.577-25.36-25.131-25.36-25.131-60.633 0-35.274 25.003-60.502 25.002-25.229 60.449-25.229t60.577 25.175q25.131 25.176 25.131 60.45 0 35.273-25.003 60.686-25.002 25.413-60.449 25.413ZM355.624-188.435v-469.912q-61.812-5.377-124.312-15.145T110.436-698.55l22.739-88.144q81.376 21.289 170.604 31.123 89.227 9.833 175.427 9.833 86.2 0 176.504-9.833 90.304-9.834 172.246-31.123l22.174 88.144q-58.754 15.29-121.348 25.058t-124.029 14.999v470.058h-89.275v-234.782h-70.956v234.782h-88.898ZM311.075 5.782q-19.017 0-32.843-13.612-13.827-13.611-13.827-32.796t13.781-33.012q13.78-13.826 32.796-13.826 19.017 0 32.561 13.977 13.544 13.976 13.544 33.284 0 19.067-13.498 32.526-13.498 13.46-32.514 13.46Zm169.638 0q-19.017 0-32.278-13.612-13.261-13.611-13.261-32.796t13.215-33.012q13.215-13.826 32.231-13.826 19.017 0 32.561 13.977 13.544 13.976 13.544 33.284 0 19.067-13.498 32.526-13.497 13.46-32.514 13.46Zm170.769 0q-19.017 0-32.561-13.612-13.544-13.611-13.544-32.796t13.498-33.012q13.497-13.826 32.514-13.826 19.017 0 32.56 13.977 13.544 13.976 13.544 33.284 0 19.067-13.497 32.526-13.498 13.46-32.514 13.46Z"/></svg>